<svg width="64px" height="47px" viewBox="0 0 64 47" version="1.1" xmlns="http://www.w3.org/2000/svg" xmlns:xlink="http://www.w3.org/1999/xlink"><!-- Generator: Sketch 47.1 (45422) - http://www.bohemiancoding.com/sketch--><title>Flag</title><desc>Created with Sketch.</desc><defs></defs><g id="Reviews-Site" stroke="none" stroke-width="1" fill="none" fill-rule="evenodd"><g id="1---Home" transform="translate(-688.000000, -1528.000000)"><g id="We-connect" transform="translate(369.000000, 1528.000000)"><g id="Squares" transform="translate(319.000000, 0.000000)"><g id="Flag"><g id="path0_fill-link" transform="translate(21.000000, 14.580000)"><g id="Group-2"></g></g><path id="path0_fill" d="M11.7567,1.228877 C11.903,0.838573 12.2762,0.58 12.693,0.58 L46.557,0.58 C47.2552,0.58 47.7385,1.277373 47.4933,1.93112 L36.2433,31.9311 C36.097,32.3214 35.7238,32.58 35.307,32.58 L1.443,32.58 C0.744794,32.58 0.261515,31.8826 0.506671,31.2289 L11.7567,1.228877 Z" fill="#116BF2" fill-rule="nonzero"></path><path id="path1_fill" d="M27.7567,15.228877 C27.903,14.838573 28.2762,14.58 28.693,14.58 L62.557,14.58 C63.2552,14.58 63.7385,15.277373 63.4933,15.93112 L52.2433,45.9311 C52.097,46.3214 51.7238,46.58 51.307,46.58 L17.443,46.58 C16.744794,46.58 16.261515,45.8826 16.506671,45.2289 L27.7567,15.228877 Z" fill="#D1287A" fill-rule="nonzero"></path><path id="path2_fill" d="M42.75,14.58 L36.2434,31.9311 C36.0969,32.3215 35.7239,32.58 35.3069,32.58 L21.25,32.58 L27.75659,15.228926 C27.90308,14.838545 28.27612,14.58 28.69312,14.58 L42.75,14.58 Z" fill="#5D145F" fill-rule="nonzero"></path></g></g></g></g></g></svg>