<svg xmlns="http://www.w3.org/2000/svg" width="64" height="64"><path fill="#116bf2" d="M46 57.5L55.5 57.5 48 40.5 32 44.5 40 63.5 46 57.5zM18 57.5L8.5 57.5 16 40.5 32 44.5 24 63.5 18 57.5z"></path><path fill="#21b1ff" d="M53.88,25.51l1.67-3a3.49,3.49,0,0,0-1-4.58L51.72,16l.21-3.39A3.49,3.49,0,0,0,49,9l-3.36-.55L44.36,5.26a3.5,3.5,0,0,0-4.23-2l-3.26,1L34.35,1.91a3.5,3.5,0,0,0-4.7,0L27.13,4.19l-3.26-1a3.5,3.5,0,0,0-4.23,2L18.36,8.41,15,9a3.5,3.5,0,0,0-2.93,3.67L12.28,16,9.5,18a3.49,3.49,0,0,0-1.05,4.58l1.67,3-1.67,3A3.49,3.49,0,0,0,9.5,33.05l2.78,2-.21,3.39A3.51,3.51,0,0,0,15,42.06l3.36.55,1.28,3.14a3.49,3.49,0,0,0,4.23,2l3.26-1,2.52,2.28a3.5,3.5,0,0,0,4.7,0l2.52-2.28,3.26,1a3.49,3.49,0,0,0,4.23-2l1.28-3.14L49,42.06a3.5,3.5,0,0,0,2.93-3.67L51.72,35l2.78-2a3.49,3.49,0,0,0,1-4.58Zm-3.36,4.22-2.36,1.65a3.52,3.52,0,0,0-1.49,3.09l.18,2.87L44,37.81a3.47,3.47,0,0,0-2.68,2.13l-1.09,2.67-2.76-.81a3.48,3.48,0,0,0-3.34.76L32,44.49l-2.14-1.93a3.48,3.48,0,0,0-3.34-.76l-2.76.81-1.09-2.67A3.47,3.47,0,0,0,20,37.81l-2.84-.47.18-2.87a3.52,3.52,0,0,0-1.49-3.09l-2.36-1.65,1.41-2.51a3.49,3.49,0,0,0,0-3.43l-1.41-2.51,2.36-1.65a3.51,3.51,0,0,0,1.49-3.08l-.18-2.88L20,13.21a3.51,3.51,0,0,0,2.68-2.14L23.76,8.4l2.76.82a3.48,3.48,0,0,0,3.34-.76L32,6.52l2.14,1.94a3.48,3.48,0,0,0,3.34.76l2.76-.82,1.09,2.67A3.51,3.51,0,0,0,44,13.21l2.84.46-.18,2.88a3.51,3.51,0,0,0,1.49,3.08l2.36,1.65-1.41,2.51a3.49,3.49,0,0,0,0,3.43Z"></path></svg>