<svg xmlns="http://www.w3.org/2000/svg" width="64" height="64"><path fill="#04dbb4" d="M31.53 17.35a.5.5 0 0 1 .94 0l3.2 9.12a.48.48 0 0 0 .46.33l9.66.22a.5.5 0 0 1 .29.9l-7.69 5.86a.5.5 0 0 0-.17.54L41 43.58a.5.5 0 0 1-.76.55l-7.95-5.5a.48.48 0 0 0-.56 0l-7.95 5.5a.5.5 0 0 1-.76-.55l2.77-9.26a.5.5 0 0 0-.17-.54l-7.69-5.86a.5.5 0 0 1 .29-.9l9.66-.22a.47.47 0 0 0 .46-.33zM.7 33.62a.5.5 0 0 1 .21-.86l11.64-3a.49.49 0 0 1 .59.66L9.26 40.33a.5.5 0 0 1-.8.19z"></path><path fill="#04dbb4" d="M10.38 36.05A21.56 21.56 0 0 1 10 32 22 22 0 0 1 49.67 18.89l2.4-6.41A28 28 0 0 0 4 32c0 .74 0 1.48.09 2.2zM53.62 28A21.56 21.56 0 0 1 54 32 22 22 0 0 1 14.33 45.11l-2.4 6.41A28 28 0 0 0 60 32c0-.74 0-1.48-.09-2.2z"></path><path fill="#04dbb4" d="M63.3,30.38a.5.5,0,0,1-.21.86l-11.64,3a.49.49,0,0,1-.59-.66l3.88-9.92a.5.5,0,0,1,.8-.19Z"></path></svg>