<svg xmlns="http://www.w3.org/2000/svg" width="64" height="64"><defs><mask id="a" width="64" height="64" x="0" y="-0.5" maskUnits="userSpaceOnUse"><path fill="#fff" fill-rule="evenodd" d="M0 -0.5L64 -0.5 64 63.5 0 63.5 0 -0.5z"></path></mask></defs><g mask="url(#a)"><path fill="#1e50e5" d="M0,32.5a15,15,0,0,1,15-15H34a15,15,0,0,1,0,30H15A15,15,0,0,1,0,32.5Z"></path><path fill="#0593ff" d="M17,17.5a14,14,0,0,1,14-14H50a14,14,0,0,1,0,28H31A14,14,0,0,1,17,17.5Z"></path><path fill="#1e50e5" d="M28,45.5H12V59.09a1,1,0,0,0,1.71.7Z"></path><path fill="#0593ff" d="M40,25.5H56V39.09a1,1,0,0,1-1.71.7Z"></path></g></svg>